<?xml version="1.0" standalone="no"?><!DOCTYPE svg PUBLIC "-//W3C//DTD SVG 1.1//EN" "http://www.w3.org/Graphics/SVG/1.1/DTD/svg11.dtd"><svg class="icon" width="200px" height="200.00px" viewBox="0 0 1024 1024" version="1.1" xmlns="http://www.w3.org/2000/svg"><path d="M546.986667 302.506667a49.493333 49.493333 0 0 0-69.973334 0l-174.506666 174.506666a49.493333 49.493333 0 0 0 69.930666 69.973334l90.112-90.154667v229.717333a49.493333 49.493333 0 0 0 98.901334 0v-229.717333l90.112 90.154667a49.450667 49.450667 0 1 0 69.973333-69.973334L546.986667 302.506667z" fill="#000000" /><path d="M512 74.666667C270.506667 74.666667 74.666667 270.506667 74.666667 512S270.506667 949.333333 512 949.333333 949.333333 753.493333 949.333333 512 753.493333 74.666667 512 74.666667zM173.568 512a338.432 338.432 0 1 1 676.864 0 338.432 338.432 0 0 1-676.864 0z" fill="#000000" /></svg>