<?xml version="1.0" standalone="no"?><!DOCTYPE svg PUBLIC "-//W3C//DTD SVG 1.1//EN" "http://www.w3.org/Graphics/SVG/1.1/DTD/svg11.dtd"><svg class="icon" width="200px" height="174.89px" viewBox="0 0 1171 1024" version="1.1" xmlns="http://www.w3.org/2000/svg"><path d="M597.61917317 848.20501302q-10.02832031 0-46.73583984-36.9t-36.64248047-46.92919922q0-16.07080078 31.37080078-27.12832031t52.00751953-11.05664063 52.00664063 11.05664063 31.37167969 27.12832031q0 10.02832031-36.64248047 46.92919922t-46.73583985 36.9zM733.19661458 712.11165364q-1.02832031 0-20.05664063-12.53583984t-50.97919921-25.13496094-64.54248047-12.53583984-64.54335938 12.53583984-50.72167968 25.13496094-20.31328125 12.53583984q-9.06503906 0-46.92919922-37.67080078t-37.92832032-46.73583984q0-6.55664063 5.01416016-11.57167969 39.15-38.7 98.42167969-60.75t117-22.11416016 117 22.11416016 98.42167969 60.75q5.01416016 5.01416016 5.01416015 11.57167969 0 9.06416016-37.92919922 46.73583984t-46.92832031 37.67080078z m137.12167969-136.60664062q-5.52832031 0-11.57167969-3.98583985-68.27167969-52.71416016-126.57832031-77.59335937T597.55501302 469.04749349q-42.68583984 0-85.62919922 11.05664062t-74.82832031 26.61503906-57.02167969 31.11416016-39.66416016 26.61416016-15.55664062 11.05664062q-8.55 0-46.22167969-37.67080078t-37.67167969-46.73583984q0-6.04248047 5.01416016-11.05664063 66.27832031-66.27832031 160.71503906-102.98583984t190.86328125-36.64335938 190.86503906 36.64335938 160.71416016 102.98583984q5.01416016 5.01416016 5.01416016 11.05664063 0 9.06416016-37.67167969 46.73583984t-46.22167969 37.67167969z m136.09248047-136.09335938q-5.52832031 0-11.05664063-4.5-89.87167969-78.87832031-186.55664062-118.8T597.61829427 276.19173177 386.44085286 316.11165364 199.88333333 434.91165364q-5.52832031 4.5-11.05664063 4.5-8.55087891 0-46.47919921-37.67080078t-37.92832032-46.73583984q0-6.55664063 5.01416016-11.57167969 93.92167969-93.40751953 223.52167969-144.64248047T597.61917317 147.55501302t264.66416016 51.23583984 223.52167969 144.64248047q5.01416016 5.01416016 5.01416015 11.57167969 0 9.06416016-37.92832031 46.73583984t-46.47919922 37.67080078z" /></svg>